<svg id="visual" viewBox="0 0 960 540" width="960" height="540" xmlns="http://www.w3.org/2000/svg" xmlns:xlink="http://www.w3.org/1999/xlink" version="1.1"><rect x="0" y="0" width="960" height="540" fill="#ffffff"></rect><defs><linearGradient id="grad1_0" x1="43.8%" y1="0%" x2="100%" y2="100%"><stop offset="14.444444444444446%" stop-color="#08905d" stop-opacity="1"></stop><stop offset="85.55555555555554%" stop-color="#08905d" stop-opacity="1"></stop></linearGradient></defs><defs><linearGradient id="grad1_1" x1="43.8%" y1="0%" x2="100%" y2="100%"><stop offset="14.444444444444446%" stop-color="#08905d" stop-opacity="1"></stop><stop offset="85.55555555555554%" stop-color="#51a67b" stop-opacity="1"></stop></linearGradient></defs><defs><linearGradient id="grad1_2" x1="43.8%" y1="0%" x2="100%" y2="100%"><stop offset="14.444444444444446%" stop-color="#7fbd9b" stop-opacity="1"></stop><stop offset="85.55555555555554%" stop-color="#51a67b" stop-opacity="1"></stop></linearGradient></defs><defs><linearGradient id="grad1_3" x1="43.8%" y1="0%" x2="100%" y2="100%"><stop offset="14.444444444444446%" stop-color="#7fbd9b" stop-opacity="1"></stop><stop offset="85.55555555555554%" stop-color="#aad3bb" stop-opacity="1"></stop></linearGradient></defs><defs><linearGradient id="grad1_4" x1="43.8%" y1="0%" x2="100%" y2="100%"><stop offset="14.444444444444446%" stop-color="#d4e9dd" stop-opacity="1"></stop><stop offset="85.55555555555554%" stop-color="#aad3bb" stop-opacity="1"></stop></linearGradient></defs><defs><linearGradient id="grad1_5" x1="43.8%" y1="0%" x2="100%" y2="100%"><stop offset="14.444444444444446%" stop-color="#d4e9dd" stop-opacity="1"></stop><stop offset="85.55555555555554%" stop-color="#ffffff" stop-opacity="1"></stop></linearGradient></defs><defs><linearGradient id="grad2_0" x1="0%" y1="0%" x2="56.3%" y2="100%"><stop offset="14.444444444444446%" stop-color="#08905d" stop-opacity="1"></stop><stop offset="85.55555555555554%" stop-color="#08905d" stop-opacity="1"></stop></linearGradient></defs><defs><linearGradient id="grad2_1" x1="0%" y1="0%" x2="56.3%" y2="100%"><stop offset="14.444444444444446%" stop-color="#51a67b" stop-opacity="1"></stop><stop offset="85.55555555555554%" stop-color="#08905d" stop-opacity="1"></stop></linearGradient></defs><defs><linearGradient id="grad2_2" x1="0%" y1="0%" x2="56.3%" y2="100%"><stop offset="14.444444444444446%" stop-color="#51a67b" stop-opacity="1"></stop><stop offset="85.55555555555554%" stop-color="#7fbd9b" stop-opacity="1"></stop></linearGradient></defs><defs><linearGradient id="grad2_3" x1="0%" y1="0%" x2="56.3%" y2="100%"><stop offset="14.444444444444446%" stop-color="#aad3bb" stop-opacity="1"></stop><stop offset="85.55555555555554%" stop-color="#7fbd9b" stop-opacity="1"></stop></linearGradient></defs><defs><linearGradient id="grad2_4" x1="0%" y1="0%" x2="56.3%" y2="100%"><stop offset="14.444444444444446%" stop-color="#aad3bb" stop-opacity="1"></stop><stop offset="85.55555555555554%" stop-color="#d4e9dd" stop-opacity="1"></stop></linearGradient></defs><defs><linearGradient id="grad2_5" x1="0%" y1="0%" x2="56.3%" y2="100%"><stop offset="14.444444444444446%" stop-color="#ffffff" stop-opacity="1"></stop><stop offset="85.55555555555554%" stop-color="#d4e9dd" stop-opacity="1"></stop></linearGradient></defs><g transform="translate(960, 0)"><path d="M0 540C-95.3 526.3 -190.5 512.7 -270 467.7C-349.5 422.6 -413.2 346.2 -455.5 263C-497.9 179.8 -518.9 89.9 -540 0L0 0Z" fill="#eaf4ee"></path><path d="M0 450C-79.4 438.6 -158.8 427.2 -225 389.7C-291.2 352.2 -344.3 288.5 -379.6 219.2C-414.9 149.9 -432.5 74.9 -450 0L0 0Z" fill="#bfdecc"></path><path d="M0 360C-63.5 350.9 -127 341.8 -180 311.8C-233 281.7 -275.4 230.8 -303.7 175.3C-331.9 119.9 -346 59.9 -360 0L0 0Z" fill="#95c8ab"></path><path d="M0 270C-47.6 263.2 -95.3 256.3 -135 233.8C-174.7 211.3 -206.6 173.1 -227.8 131.5C-248.9 89.9 -259.5 45 -270 0L0 0Z" fill="#69b18b"></path><path d="M0 180C-31.8 175.4 -63.5 170.9 -90 155.9C-116.5 140.9 -137.7 115.4 -151.8 87.7C-166 59.9 -173 30 -180 0L0 0Z" fill="#369b6c"></path><path d="M0 90C-15.9 87.7 -31.8 85.4 -45 77.9C-58.2 70.4 -68.9 57.7 -75.9 43.8C-83 30 -86.5 15 -90 0L0 0Z" fill="#08905d"></path></g><g transform="translate(0, 540)"><path d="M0 -540C91.2 -521.3 182.5 -502.5 265.5 -459.9C348.5 -417.2 423.3 -350.6 467.7 -270C512 -189.4 526 -94.7 540 0L0 0Z" fill="#eaf4ee"></path><path d="M0 -450C76 -434.4 152.1 -418.8 221.2 -383.2C290.4 -347.7 352.7 -292.2 389.7 -225C426.7 -157.8 438.3 -78.9 450 0L0 0Z" fill="#bfdecc"></path><path d="M0 -360C60.8 -347.5 121.7 -335 177 -306.6C232.3 -278.1 282.2 -233.8 311.8 -180C341.4 -126.2 350.7 -63.1 360 0L0 0Z" fill="#95c8ab"></path><path d="M0 -270C45.6 -260.6 91.2 -251.3 132.7 -229.9C174.3 -208.6 211.6 -175.3 233.8 -135C256 -94.7 263 -47.3 270 0L0 0Z" fill="#69b18b"></path><path d="M0 -180C30.4 -173.8 60.8 -167.5 88.5 -153.3C116.2 -139.1 141.1 -116.9 155.9 -90C170.7 -63.1 175.3 -31.6 180 0L0 0Z" fill="#369b6c"></path><path d="M0 -90C15.2 -86.9 30.4 -83.8 44.2 -76.6C58.1 -69.5 70.5 -58.4 77.9 -45C85.3 -31.6 87.7 -15.8 90 0L0 0Z" fill="#08905d"></path></g></svg>